<svg xmlns="http://www.w3.org/2000/svg" width="200" height="200" viewBox="0 0 200 200"><g fill="#FFFFFF" stroke="#FFFFFF" stroke-width="18" stroke-linejoin="round" stroke-linecap="round"><path d="M30 58 Q66 44 100 62 Q134 44 170 58 V160 Q134 146 100 164 Q66 146 30 160Z" fill="#FFFFFF"/></g><path d="M30 58 Q66 44 100 62 V164 Q66 146 30 160Z" fill="#DCE7FF"/><path d="M100 62 Q134 44 170 58 V160 Q134 146 100 164Z" fill="#C8D9FF"/><path d="M100 62 V164" stroke="#8FA9E8" stroke-width="5"/><path d="M46 84 Q66 76 86 86 M46 104 Q66 96 86 106 M114 86 Q134 76 154 84" fill="none" stroke="#0B2A6B" stroke-width="5" stroke-linecap="round"/><path d="M118 116 q8 -16 16 0 t16 0" fill="none" stroke="#FF5A1F" stroke-width="5" stroke-linecap="round"/></svg>