<svg preserveAspectRatio="none" overflow="visible" style="display: block;" width="171" height="150" viewBox="0 0 171 150" fill="none" xmlns="http://www.w3.org/2000/svg">
<g id="After photo" clip-path="url(#clip0_0_116)">
<path id="Vector" d="M171 0H0V150H171V0Z" fill="#DCE7FF"/>
<path id="Vector_2" d="M130 42H42V100H130V42Z" fill="#FDF4E3"/>
<path id="Vector_3" d="M32 46L86 14L140 46H32Z" fill="#E5484D"/>
<path id="Vector_4" d="M95 66H77V100H95V66Z" fill="#A0673D"/>
<path id="Vector_5" d="M68 56H52V70H68V56Z" fill="#C8D9FF"/>
<path id="Vector_6" d="M120 56H104V70H120V56Z" fill="#C8D9FF"/>
<path id="Vector_7" d="M171 98H0V150H171V98Z" fill="#78F00D"/>
<path id="Vector_8" d="M14 98H0V150H14V98Z" fill="#6AD90B"/>
<path id="Vector_9" d="M42 98H28V150H42V98Z" fill="#6AD90B"/>
<path id="Vector_10" d="M70 98H56V150H70V98Z" fill="#6AD90B"/>
<path id="Vector_11" d="M98 98H84V150H98V98Z" fill="#6AD90B"/>
<path id="Vector_12" d="M126 98H112V150H126V98Z" fill="#6AD90B"/>
<path id="Vector_13" d="M154 98H140V150H154V98Z" fill="#6AD90B"/>
<path id="Vector_14" d="M182 98H168V150H182V98Z" fill="#6AD90B"/>
<path id="Vector_15" d="M171 96H0V100H171V96Z" fill="#5CC40A"/>
<path id="Vector_16" d="M149 80H143C139.134 80 136 83.134 136 87V97C136 100.866 139.134 104 143 104H149C152.866 104 156 100.866 156 97V87C156 83.134 152.866 80 149 80Z" fill="#454545"/>
<path id="Vector_17" d="M25 82H21C17.134 82 14 85.134 14 89V97C14 100.866 17.134 104 21 104H25C28.866 104 32 100.866 32 97V89C32 85.134 28.866 82 25 82Z" fill="#454545"/>
</g>
<defs>
<clipPath id="clip0_0_116">
<rect width="171" height="150" fill="white"/>
</clipPath>
</defs>
</svg>
